# xmcd
# 
# Track frame offsets:
#     182
#     27930
#     61202
#     87460
#     116802
#     142470
#     170325
#     201520
#     225417
#     251367
#     277570
# 
# Disc length: 4087
# 
# Revision: 2
# Processed by: cddbd v1.5.2PL0 Copyright (c) Steve Scherf et al.
# Submitted via: fre:ac v1.1
# 
DISCID=980ff50b
DTITLE=Barry White - Staying Power
DYEAR=1999
DGENRE=R&B
TTITLE0=Staying Power
TTITLE1=Don't Play Games
TTITLE2=The Longer We Make Love (Duet with Chaka Khan)
TTITLE3=I Get Off On You
TTITLE4=Which Way Is Up
TTITLE5=Get Up
TTITLE6=Sometimes
TTITLE7=Low Rider
TTITLE8=Thank You
TTITLE9=Slow Your Roll
TTITLE10=The Longer We Make Love (Duet with Lisa Stansfield)
EXTD=YEAR: 1999 ID3G: 14
EXTT0=
EXTT1=
EXTT2=
EXTT3=
EXTT4=
EXTT5=
EXTT6=
EXTT7=
EXTT8=
EXTT9=
EXTT10=
PLAYORDER=
